# AST/ASF file generated using VICON BodyLanguage
# -----------------------------------------------
:version 1.10
:name VICON
:units
  mass 1.0
  length 0.45
  angle deg
:documentation
   .ast/.asf automatically generated from VICON data using
   VICON BodyBuilder and BodyLanguage model FoxedUp or BRILLIANT.MOD
:root
   order TX TY TZ RX RY RZ
   axis XYZ
   position 0 0 0  
   orientation 0 0 0 
:bonedata
  begin
     id 1 
     name lhipjoint
     direction 0.575328 -0.747301 0.332475 
     length 2.40933 
     axis 0 0 0  XYZ
  end
  begin
     id 2 
     name lfemur
     direction 0.34202 -0.939693 0  
     length 7.31453  
     axis 0 0 20  XYZ
    dof rx ry rz
    limits (-160.0 20.0)
           (-70.0 70.0)
           (-60.0 70.0)
  end
  begin
     id 3 
     name ltibia
     direction 0.34202 -0.939693 0   
     length 7.82185   
     axis 0 0 20   XYZ
    dof rx
    limits (-10.0 170.0)
  end
  begin
     id 4 
     name lfoot
     direction 0.0795993 -0.218697 0.972541   
     length 2.19173   
     axis -90 7.62852e-016 20   XYZ
    dof rx rz
    limits (-45.0 90.0)
           (-70.0 20.0)
  end
  begin
     id 5 
     name ltoes
     direction 1.53537e-011 -4.21894e-011 1   
     length 1.10023   
     axis -90 7.62852e-016 20   XYZ
    dof rx
    limits (-90.0 20.0)
  end
  begin
     id 6 
     name rhipjoint
     direction -0.513884 -0.783789 0.348708   
     length 2.29716  
     axis 0 0 0  XYZ 
  end
  begin
     id 7 
     name rfemur
     direction -0.34202 -0.939693 0   
     length 7.59573   
     axis 0 0 -20   XYZ
    dof rx ry rz
    limits (-160.0 20.0)
           (-70.0 70.0)
           (-70.0 60.0)
  end
  begin
     id 8 
     name rtibia
     direction -0.34202 -0.939693 0   
     length 7.66402   
     axis 0 0 -20   XYZ
    dof rx
    limits (-10.0 170.0)
 end
 begin
     id 9 
     name rfoot
     direction -0.137793 -0.378584 0.915253   
     length 2.27056  
     axis -90 -7.62852e-016 -20   XYZ
    dof rx rz
    limits (-45.0 90.0)
           (-20.0 70.0)
  end
  begin
     id 10 
     name rtoes
     direction -1.53493e-011 -4.22159e-011 1   
     length 1.11766   
     axis -90 -7.62852e-016 -20   XYZ
    dof rx
    limits (-90.0 20.0)
  end
  begin
     id 11 
     name lowerback
     direction -0.00732775 0.998356 -0.05685   
     length 2.16513   
     axis 0 0 0   XYZ
    dof rx ry rz
    limits (-20.0 45.0)
           (-30.0 30.0)
           (-30.0 30.0)
  end
  begin
     id 12 
     name upperback
     direction 0.0218081 0.999627 -0.0164647   
     length 2.16755   
     axis 0 0 0   XYZ
    dof rx ry rz
    limits (-20.0 45.0)
           (-30.0 30.0)
           (-30.0 30.0)
  end
  begin
     id 13 
     name thorax
     direction 0.02365 0.999661 0.0108914   
     length 2.16932   
     axis 0 0 0   XYZ
    dof rx ry rz
    limits (-20.0 45.0)
           (-30.0 30.0)
           (-30.0 30.0)
  end
  begin
     id 14 
     name lowerneck
     direction -0.0523929 0.978385 0.200044   
     length 1.63877   
     axis 0 0 0   XYZ
    dof rx ry rz
    limits (-20.0 45.0)
           (-30.0 30.0)
           (-30.0 30.0)
  end
  begin
     id 15 
     name upperneck
     direction 0.0448674 0.981321 -0.187074   
     length 1.69014   
     axis 0 0 0   XYZ
    dof rx ry rz
    limits (-20.0 45.0)
           (-30.0 30.0)
           (-30.0 30.0)
  end
  begin
     id 16
     name head
     direction 0.0199089 0.996118 -0.0857429  
     length 1.70094  
     axis 0 0 0   XYZ
    dof rx ry rz
    limits (-20.0 45.0)
           (-30.0 30.0)
           (-30.0 30.0)
  end
  begin
     id 17 
     name lclavicle
     direction 0.940366 0.30191 -0.156722  
     length 3.37521  
     axis 0 0 0   XYZ
    dof ry rz
    limits (-20.0 10.0)
           (0.0 20.0)
  end
  begin
     id 18 
     name lhumerus
     direction 1 -4.4897e-011 -1.7911e-027   
     length 5.25287   
     axis 180 -30 -90   XYZ
    dof rx ry rz
    limits (-60.0 90.0)
           (-90.0 90.0)
           (-90.0 90.0)
  end
  begin
     id 19
     name lradius
     direction 1 -4.48951e-011 1.04424e-027   
     length 3.51014   
     axis 180 -30 -90   XYZ
    dof rx
    limits (-10.0 170.0)
  end
  begin
     id 20
     name lwrist
     direction 1 -4.48997e-011 -9.5942e-028   
     length 1.75507   
     axis 8.48502e-016 90 90   XYZ
    dof ry
    limits (-180.0 0.0)
 end
  begin
     id 21 
     name lhand
     direction 1 -4.48831e-011 -1.90777e-027   
     length 0.706179   
     axis 1.22306e-015 90 90   XYZ
    dof rx rz
    limits (-90.0 90.0)
           (-45.0 45.0)
  end
  begin
     id 22 
     name lfingers
     direction 1 -4.49108e-011 -3.85244e-027   
     length 0.569339   
     axis 2.44611e-015 90 90   XYZ
    dof rx
    limits (0.0 90.0)
  end
  begin
     id 23
     name lthumb
     direction 0.707107 -6.34953e-011 0.707107   
     length 0.817461   
     axis -90 45 -1.62303e-014   XYZ
    dof rx rz
    limits (-45.0 45.0)
           (-45.0 45.0)
  end
  begin
     id 24 
     name rclavicle
     direction -0.905329 0.382405 -0.184787   
     length 3.30787  
     axis 0 0 0   XYZ 
    dof ry rz
    limits (-10.0 20.0)
           (-20.0 0.0)
  end
  begin
     id 25 
     name rhumerus
     direction -1 -4.48953e-011 -9.15316e-029  
     length 5.28721   
     axis 180 30 90   XYZ
    dof rx ry rz
    limits (-90.0 60.0)
           (-90.0 90.0)
           (-90.0 90.0)
  end
  begin
     id 26 
     name rradius
     direction -1 -4.48987e-011 9.37824e-028   
     length 3.50544   
     axis 180 30 90   XYZ
    dof rx
    limits (-10.0 170.0)
  end
  begin
     id 27 
     name rwrist
     direction -1 -4.48967e-011 -9.58414e-028   
     length 1.75272   
     axis 8.48502e-016 -90 -90   XYZ
    dof ry
    limits (-180.0 0.0)
  end
  begin
     id 28
     name rhand
     direction -1 -4.48904e-011 -1.91266e-027   
     length 0.884996   
     axis 1.22306e-015 -90 -90   XYZ
    dof rx rz
    limits (-90.0 90.0)
           (-45.0 45.0)
  end
  begin
     id 29
     name rfingers
     direction -1 -4.4909e-011 -3.85015e-027   
     length 0.713507   
     axis 2.44611e-015 -90 -90   XYZ
    dof rx
    limits (0.0 90.0)
  end
  begin
     id 30
     name rthumb
     direction -0.707107 -6.34853e-011 0.707107   
     length 1.02446   
     axis -90 -45 1.62303e-014   XYZ
    dof rx rz
    limits (-45.0 45.0)
           (-45.0 45.0)
  end
:hierarchy
  begin
    root lhipjoint rhipjoint lowerback
    lhipjoint lfemur
    lfemur ltibia
    ltibia lfoot
    lfoot ltoes
    rhipjoint rfemur
    rfemur rtibia
    rtibia rfoot
    rfoot rtoes
    lowerback upperback
    upperback thorax
    thorax lowerneck lclavicle rclavicle
    lowerneck upperneck
    upperneck head
    lclavicle lhumerus
    lhumerus lradius
    lradius lwrist
    lwrist lhand lthumb
    lhand lfingers
    rclavicle rhumerus
    rhumerus rradius
    rradius rwrist
    rwrist rhand rthumb
    rhand rfingers
  end

#!OML:ASF F:\twosubjects\two\Thursday\Session 1\justin.ASF
:FULLY-SPECIFIED
:DEGREES
105
root 8.98453 14.2546 -12.6482 19.7895 14.6561 8.52228
lowerback 36.2602 1.76412 3.69224
upperback 6.15784 4.4221 5.16614
thorax -11.4136 1.95429 1.79629
lowerneck -15.2006 -10.5665 -15.6161
upperneck -3.54962 -11.6147 8.32875
head 2.64632 -5.43822 4.11154
rclavicle -2.54444e-014 -1.43125e-014
rhumerus 52.0657 -5.44102 -80.3585
rradius 107.148
rwrist -64.2016
rhand 2.10977 -6.54213
rfingers 7.12502
rthumb 27.6096 -34.5366
lclavicle -2.54444e-014 -1.43125e-014
lhumerus 22.0812 -47.0738 78.504
lradius 82.7697
lwrist -23.5647
lhand -16.0145 71.3949
lfingers 7.12502
lthumb 10.1862 -101.128
rfemur -61.0193 -21.4338 -11.5034
rtibia 63.8045
rfoot -12.127 -1.61853
rtoes -34.742
lfemur -48.1223 17.9377 -5.65897
ltibia 69.3486
lfoot -29.1517 -15.0767
ltoes -37.5324
106
root 9.00601 14.2176 -12.6593 19.6588 14.7949 8.93363
lowerback 36.2964 1.84138 3.26329
upperback 6.23911 4.35948 5.16538
thorax -11.3679 1.94251 2.04514
lowerneck -14.9881 -10.6542 -15.5614
upperneck -3.53134 -11.7782 8.31075
head 2.63471 -5.52679 4.0881
rclavicle -9.54166e-015 1.11319e-014
rhumerus 52.2135 -5.44368 -80.1809
rradius 107.045
rwrist -63.8048
rhand 1.65232 -5.95137
rfingers 7.12502
rthumb 27.172 -34.015
lclavicle -9.54166e-015 1.11319e-014
lhumerus 22.5721 -47.2368 78.4972
lradius 82.8096
lwrist -23.2901
lhand -16.1857 71.9883
lfingers 7.12502
lthumb 10.0211 -101.73
rfemur -60.7196 -21.6212 -12.2213
rtibia 64.0892
rfoot -12.2728 -1.45562
rtoes -34.5771
lfemur -48.2714 18.1534 -6.0935
ltibia 69.8609
lfoot -29.2213 -16.1018
ltoes -37.1074
107
root 9.00612 14.1978 -12.6557 19.1368 15.0412 8.78021
lowerback 36.5931 1.84241 3.2575
upperback 6.35769 4.37175 5.17294
thorax -11.3442 1.94866 2.04625
lowerneck -15.4606 -10.8976 -15.6357
upperneck -2.71755 -12.0382 8.43333
head 2.99419 -5.65529 4.06516
rclavicle 1.90833e-014 2.38542e-014
rhumerus 52.3967 -5.59809 -80.1108
rradius 106.954
rwrist -63.3708
rhand 0.852353 -5.37872
rfingers 7.12502
rthumb 26.4065 -33.5596
lclavicle 1.90833e-014 2.38542e-014
lhumerus 22.7882 -47.3516 78.5328
lradius 83.0155
lwrist -23.4625
lhand -15.5929 71.6002
lfingers 7.12502
lthumb 10.5929 -101.313
rfemur -60.1679 -21.2755 -12.4029
rtibia 64.4397
rfoot -12.5657 -1.63134
rtoes -34.2315
lfemur -47.94 18.6147 -5.77718
ltibia 70.2916
lfoot -29.7434 -16.8725
ltoes -37.2948
108
root 9.03303 14.1547 -12.684 19.0668 15.3315 8.5603
lowerback 36.5086 1.59589 3.78034
upperback 6.29985 4.23487 4.99457
thorax -11.3159 1.87147 1.63901
lowerneck -15.6969 -11.0473 -15.4588
upperneck -2.27184 -12.2464 8.46998
head 3.18215 -5.76047 4.00472
rclavicle 9.54166e-015 1.11319e-014
rhumerus 52.4699 -5.69143 -79.9891
rradius 106.944
rwrist -63.4562
rhand -0.112467 -4.9722
rfingers 7.12502
rthumb 25.4826 -33.2884
lclavicle 9.54166e-015 1.11319e-014
lhumerus 22.6742 -47.352 78.7016
lradius 83.3263
lwrist -24.0742
lhand -16.0679 71.6209
lfingers 7.12502
lthumb 10.1347 -101.357
rfemur -60.3068 -21.5082 -12.2822
rtibia 64.7757
rfoot -12.5614 -1.67483
rtoes -34.2258
lfemur -48.5731 19.0252 -5.70787
ltibia 70.9604
lfoot -29.9123 -17.5986
ltoes -36.8242
109
root 9.06761 14.0912 -12.7212 19.4274 15.9127 8.74443
lowerback 36.1079 1.28905 4.17638
upperback 6.12154 3.97127 4.85662
thorax -11.3224 1.74277 1.39668
lowerneck -15.594 -11.0983 -15.0733
upperneck -2.18331 -12.3944 8.22588
head 3.17077 -5.84918 3.85948
rclavicle -6.36111e-014 -2.8625e-014
rhumerus 52.3032 -5.87816 -79.7106
rradius 106.793
rwrist -62.9577
rhand -0.328708 -4.20831
rfingers 7.12502
rthumb 25.2755 -32.5539
lclavicle -6.36111e-014 -2.8625e-014
lhumerus 22.6917 -47.4303 78.9679
lradius 83.3397
lwrist -24.5015
lhand -15.6567 71.6899
lfingers 7.12502
lthumb 10.5314 -101.406
rfemur -60.6408 -22.5413 -12.4043
rtibia 65.1913
rfoot -12.5091 -1.41136
rtoes -34.1363
lfemur -49.8276 19.0894 -6.14824
ltibia 71.5896
lfoot -29.8256 -18.114
ltoes -36.1949
110
root 9.0811 14.0378 -12.7508 19.4017 16.3129 8.6885
lowerback 36.1351 1.2101 4.30332
upperback 6.03785 3.93134 4.8604
thorax -11.4181 1.7191 1.34874
lowerneck -15.4108 -11.1456 -15.0675
upperneck -2.086 -12.4965 8.33615
head 3.19369 -5.90166 3.8852
rclavicle 3.02153e-014 3.65764e-014
rhumerus 52.0631 -6.06428 -79.2231
rradius 106.959
rwrist -63.3566
rhand -1.61182 -4.16002
rfingers 7.12502
rthumb 24.0457 -32.6736
lclavicle 3.02153e-014 3.65764e-014
lhumerus 23.2107 -47.6779 78.7874
lradius 83.2876
lwrist -24.3749
lhand -15.8059 71.8202
lfingers 7.12502
lthumb 10.3874 -101.544
rfemur -60.7786 -23.1213 -12.3502
rtibia 65.5783
rfoot -12.4852 -1.09137
rtoes -33.9582
lfemur -50.4251 19.3541 -6.18053
ltibia 72.1358
lfoot -29.9614 -18.5182
ltoes -35.3068
111
root 9.04137 14.0481 -12.7226 18.4835 16.6665 8.62177
lowerback 36.903 1.36622 3.62708
upperback 6.17603 3.94258 5.0145
thorax -11.6103 1.74236 1.84987
lowerneck -15.149 -11.0785 -14.9724
upperneck -2.09641 -12.476 8.54847
head 3.16281 -5.89018 3.94978
rclavicle 4.45278e-014 -7.63333e-014
rhumerus 51.8284 -6.18626 -78.9873
rradius 107.169
rwrist -63.5042
rhand -2.04985 -4.58847
rfingers 7.12502
rthumb 23.6256 -33.1569
lclavicle 4.45278e-014 -7.63333e-014
lhumerus 23.6928 -47.9035 78.3039
lradius 83.4316
lwrist -24.0023
lhand -14.7581 72.3138
lfingers 7.12502
lthumb 11.3981 -101.984
rfemur -59.6654 -22.6816 -12.5306
rtibia 65.978
rfoot -13.0042 -1.25082
rtoes -33.7019
lfemur -49.2201 19.7299 -5.69967
ltibia 72.1847
lfoot -30.4801 -19.6488
ltoes -33.982
112
root 9.0552 14.0051 -12.7395 18.6904 16.904 8.58889
lowerback 36.5213 1.23194 3.69374
upperback 6.08493 3.75727 4.83272
thorax -11.5484 1.65902 1.70132
lowerneck -15.0974 -10.9323 -14.629
upperneck -1.86747 -12.3548 8.49473
head 3.19125 -5.83697 3.89383
rclavicle -7.95139e-015 1.59028e-014
rhumerus 51.5599 -6.35399 -78.8626
rradius 107.31
rwrist -63.4197
rhand -2.01879 -4.74249
rfingers 7.12502
rthumb 23.6554 -33.3071
lclavicle -7.95139e-015 1.59028e-014
lhumerus 23.8343 -48.0362 78.1006
lradius 83.4748
lwrist -23.8536
lhand -13.3611 72.657
lfingers 7.12502
lthumb 12.7451 -102.248
rfemur -60.0046 -23.0425 -12.5122
rtibia 66.3034
rfoot -13.0305 -1.20796
rtoes -33.4496
lfemur -49.8431 20.0374 -5.87912
ltibia 72.5586
lfoot -31.0592 -19.4698
ltoes -34.682
113
root 9.06036 13.9621 -12.7541 18.8874 17.2315 8.58646
lowerback 36.2251 1.12494 3.65439
upperback 5.97625 3.5834 4.71948
thorax -11.552 1.58303 1.67481
lowerneck -15.1246 -10.8852 -14.6743
upperneck -1.51082 -12.3054 8.76939
head 3.3247 -5.80484 3.97887
rclavicle 3.97569e-014 -3.65764e-014
rhumerus 51.2318 -6.53693 -78.6013
rradius 107.459
rwrist -63.5595
rhand -2.27309 -4.28677
rfingers 7.12502
rthumb 23.4114 -32.8827
lclavicle 3.97569e-014 -3.65764e-014
lhumerus 23.8638 -48.026 78.1377
lradius 83.4433
lwrist -23.9941
lhand -15.1312 72.3921
lfingers 7.12502
lthumb 11.0382 -102.082
rfemur -60.2817 -23.3505 -12.5444
rtibia 66.6549
rfoot -13.0171 -1.26361
rtoes -33.0573
lfemur -50.4083 20.3161 -6.1254
ltibia 72.7474
lfoot -31.7524 -18.8448
ltoes -35.7211
114
root 9.0476 13.9334 -12.7538 18.6009 17.7247 8.56492
lowerback 36.5136 1.08681 3.29943
upperback 5.93695 3.45579 4.90149
thorax -11.7414 1.53642 2.10417
lowerneck -15.144 -11.0005 -15.1762
upperneck -1.19904 -12.4047 9.26811
head 3.50133 -5.83653 4.18304
rclavicle 1.90833e-014 -4.77083e-015
rhumerus 51.0193 -6.59926 -78.1256
rradius 107.588
rwrist -63.946
rhand -2.55852 -4.44521
rfingers 7.12502
rthumb 23.1376 -33.0758
lclavicle 1.90833e-014 -4.77083e-015
lhumerus 23.7352 -47.7888 78.5408
lradius 83.4529
lwrist -24.3093
lhand -3.20721 74.0405
lfingers 7.12502
lthumb 22.5151 -102.748
rfemur -59.9029 -23.3736 -12.6956
rtibia 67.0783
rfoot -13.2641 -1.46216
rtoes -32.3425
lfemur -50.3573 20.4912 -6.13197
ltibia 72.7816
lfoot -32.1069 -19.2215
ltoes -34.4374
115
root 9.03583 13.8987 -12.7616 18.406 18.3265 8.28102
lowerback 36.6161 1.03446 3.25881
upperback 5.89239 3.42972 5.17064
thorax -11.8558 1.52801 2.42492
lowerneck -15.1549 -11.1864 -15.468
upperneck -0.940988 -12.6233 9.50597
head 3.64228 -5.93778 4.26436
rclavicle 1.27222e-014 -4.29375e-014
rhumerus 50.983 -6.68624 -77.4562
rradius 107.525
rwrist -63.5077
rhand -3.11981 -4.55918
rfingers 7.12502
rthumb 22.599 -33.2563
lclavicle 1.27222e-014 -4.29375e-014
lhumerus 23.9365 -47.8312 78.8977
lradius 83.2766
lwrist -24.5094
lhand -1.81524 74.585
lfingers 7.12502
lthumb 23.8506 -103.124
rfemur -59.7861 -23.5147 -12.4653
rtibia 67.5908
rfoot -13.5082 -1.80355
rtoes -32.2695
lfemur -50.5149 20.6931 -5.83222
ltibia 72.7995
lfoot -32.0457 -20.1087
ltoes -31.9743
